<svg viewBox="0 0 380 282" xmlns="http://www.w3.org/2000/svg" role="img" aria-label="Standard, 110 degree beam, source in view"><rect x="65.0" y="12" width="250" height="40" rx="20" fill="#C0563E"/><path d="M84.0 25.0 l14 14 M98.0 25.0 l-14 14" stroke="#fff" stroke-width="3.2" stroke-linecap="round"/><text x="110.0" y="38.0" font-size="16" font-weight="700" fill="#fff" font-family="system-ui,-apple-system,sans-serif">Glare</text><text x="190.0" y="70" font-size="12" font-weight="600" text-anchor="middle" fill="#15170F" font-family="system-ui,-apple-system,sans-serif">110° standard — lamp on show</text><defs><radialGradient id="beamst" cx="50%" cy="0%" r="118%"><stop offset="0%" stop-color="#E8A33D" stop-opacity="0.42"/><stop offset="45%" stop-color="#E8A33D" stop-opacity="0.20"/><stop offset="100%" stop-color="#E8A33D" stop-opacity="0.03"/></radialGradient><radialGradient id="poolst" cx="50%" cy="50%" r="50%"><stop offset="0%" stop-color="#E8A33D" stop-opacity="0.50"/><stop offset="60%" stop-color="#E8A33D" stop-opacity="0.22"/><stop offset="100%" stop-color="#E8A33D" stop-opacity="0"/></radialGradient></defs><line x1="20" y1="92" x2="360" y2="92" stroke="#15170F" stroke-width="2"/><line x1="24" y1="92" x2="18" y2="85" stroke="#C9C6BA" stroke-width="1"/><line x1="35" y1="92" x2="29" y2="85" stroke="#C9C6BA" stroke-width="1"/><line x1="46" y1="92" x2="40" y2="85" stroke="#C9C6BA" stroke-width="1"/><line x1="57" y1="92" x2="51" y2="85" stroke="#C9C6BA" stroke-width="1"/><line x1="68" y1="92" x2="62" y2="85" stroke="#C9C6BA" stroke-width="1"/><line x1="79" y1="92" x2="73" y2="85" stroke="#C9C6BA" stroke-width="1"/><line x1="90" y1="92" x2="84" y2="85" stroke="#C9C6BA" stroke-width="1"/><line x1="101" y1="92" x2="95" y2="85" stroke="#C9C6BA" stroke-width="1"/><line x1="112" y1="92" x2="106" y2="85" stroke="#C9C6BA" stroke-width="1"/><line x1="123" y1="92" x2="117" y2="85" stroke="#C9C6BA" stroke-width="1"/><line x1="134" y1="92" x2="128" y2="85" stroke="#C9C6BA" stroke-width="1"/><line x1="145" y1="92" x2="139" y2="85" stroke="#C9C6BA" stroke-width="1"/><line x1="156" y1="92" x2="150" y2="85" stroke="#C9C6BA" stroke-width="1"/><line x1="167" y1="92" x2="161" y2="85" stroke="#C9C6BA" stroke-width="1"/><line x1="178" y1="92" x2="172" y2="85" stroke="#C9C6BA" stroke-width="1"/><line x1="189" y1="92" x2="183" y2="85" stroke="#C9C6BA" stroke-width="1"/><line x1="200" y1="92" x2="194" y2="85" stroke="#C9C6BA" stroke-width="1"/><line x1="211" y1="92" x2="205" y2="85" stroke="#C9C6BA" stroke-width="1"/><line x1="222" y1="92" x2="216" y2="85" stroke="#C9C6BA" stroke-width="1"/><line x1="233" y1="92" x2="227" y2="85" stroke="#C9C6BA" stroke-width="1"/><line x1="244" y1="92" x2="238" y2="85" stroke="#C9C6BA" stroke-width="1"/><line x1="255" y1="92" x2="249" y2="85" stroke="#C9C6BA" stroke-width="1"/><line x1="266" y1="92" x2="260" y2="85" stroke="#C9C6BA" stroke-width="1"/><line x1="277" y1="92" x2="271" y2="85" stroke="#C9C6BA" stroke-width="1"/><line x1="288" y1="92" x2="282" y2="85" stroke="#C9C6BA" stroke-width="1"/><line x1="299" y1="92" x2="293" y2="85" stroke="#C9C6BA" stroke-width="1"/><line x1="310" y1="92" x2="304" y2="85" stroke="#C9C6BA" stroke-width="1"/><line x1="321" y1="92" x2="315" y2="85" stroke="#C9C6BA" stroke-width="1"/><line x1="332" y1="92" x2="326" y2="85" stroke="#C9C6BA" stroke-width="1"/><line x1="343" y1="92" x2="337" y2="85" stroke="#C9C6BA" stroke-width="1"/><line x1="354" y1="92" x2="348" y2="85" stroke="#C9C6BA" stroke-width="1"/><path d="M190 92 L40.0 197 L340.0 197 Z" fill="url(#beamst)"/><line x1="190" y1="92" x2="40.0" y2="197" stroke="#E8A33D" stroke-width="1" stroke-opacity="0.55"/><line x1="190" y1="92" x2="340.0" y2="197" stroke="#E8A33D" stroke-width="1" stroke-opacity="0.55"/><line x1="190" y1="92" x2="190" y2="197" stroke="#8A8D7F" stroke-width="0.8" stroke-dasharray="2 5"/><path d="M152.3 118.4 A 46 46 0 0 0 227.7 118.4" fill="none" stroke="#15170F" stroke-width="1"/><line x1="155.6" y1="116.1" x2="149.0" y2="120.7" stroke="#15170F" stroke-width="1"/><line x1="224.4" y1="116.1" x2="231.0" y2="120.7" stroke="#15170F" stroke-width="1"/><text x="190" y="157" font-size="15" font-weight="600" text-anchor="middle" fill="#15170F" font-family="system-ui,-apple-system,sans-serif">110°</text><rect x="164" y="89" width="52" height="3" fill="#E8A33D"/><ellipse cx="190" cy="197" rx="150.0" ry="15" fill="url(#poolst)"/><line x1="20" y1="197" x2="360" y2="197" stroke="#15170F" stroke-width="1.2"/><path d="M56 164 v18" stroke="#2F6B47" stroke-width="3.6" stroke-linecap="round"/><path d="M48 197 L56 181 L64 197" fill="none" stroke="#2F6B47" stroke-width="3.2" stroke-linecap="round" stroke-linejoin="round"/><circle cx="56" cy="143" r="20" fill="#2F6B47"/><path d="M43.5 140 q5 4.5 10 0" fill="none" stroke="#fff" stroke-width="2.6" stroke-linecap="round"/><path d="M43.0 130.5 l11 -3.4" stroke="#fff" stroke-width="2.2" stroke-linecap="round"/><path d="M58.5 140 q5 4.5 10 0" fill="none" stroke="#fff" stroke-width="2.6" stroke-linecap="round"/><path d="M58.0 130.5 l11 3.4" stroke="#fff" stroke-width="2.2" stroke-linecap="round"/><path d="M50 154 q6 -4.5 12 0" fill="none" stroke="#fff" stroke-width="2.2" stroke-linecap="round"/><line x1="36" y1="128" x2="28" y2="121" stroke="#C0563E" stroke-width="2.4" stroke-linecap="round"/><line x1="45" y1="120" x2="41" y2="111" stroke="#C0563E" stroke-width="2.4" stroke-linecap="round"/><line x1="56" y1="118" x2="56" y2="108" stroke="#C0563E" stroke-width="2.4" stroke-linecap="round"/><line x1="67" y1="120" x2="71" y2="111" stroke="#C0563E" stroke-width="2.4" stroke-linecap="round"/><line x1="76" y1="128" x2="84" y2="121" stroke="#C0563E" stroke-width="2.4" stroke-linecap="round"/><line x1="68.5" y1="140" x2="166" y2="91" stroke="#E8A33D" stroke-width="3.4" stroke-linecap="round"/><circle cx="63.5" cy="140" r="8" fill="#E8A33D" fill-opacity="0.55"/><line x1="40.0" y1="231" x2="340.0" y2="231" stroke="#8A8D7F" stroke-width="0.9"/><line x1="40.0" y1="227" x2="40.0" y2="235" stroke="#8A8D7F" stroke-width="0.9"/><path d="M47.0 228.4 L40.0 231 L47.0 233.6" fill="none" stroke="#8A8D7F" stroke-width="0.9" stroke-linejoin="round"/><line x1="340.0" y1="227" x2="340.0" y2="235" stroke="#8A8D7F" stroke-width="0.9"/><path d="M333.0 228.4 L340.0 231 L333.0 233.6" fill="none" stroke="#8A8D7F" stroke-width="0.9" stroke-linejoin="round"/><text x="20" y="215" font-size="11" font-weight="600" text-anchor="start" fill="#C0563E" font-family="system-ui,-apple-system,sans-serif">Straight in your eyes</text><text x="190" y="247" font-size="9" text-anchor="middle" fill="#8A8D7F" font-family="ui-monospace,monospace" letter-spacing="0.8">POOL 2.86× THE DROP</text></svg>