<svg viewBox="0 0 400 430" xmlns="http://www.w3.org/2000/svg" role="img" aria-label="The fan blades chop the light into moving shadows"><defs><radialGradient id="pst" cx="50%" cy="50%" r="50%"><stop offset="0%" stop-color="#E8A33D" stop-opacity="0.52"/><stop offset="45%" stop-color="#E8A33D" stop-opacity="0.26"/><stop offset="100%" stop-color="#E8A33D" stop-opacity="0"/></radialGradient><clipPath id="rmst"><rect x="50.4" y="46.4" width="299.2" height="299.2" rx="3"/></clipPath></defs><rect x="50.4" y="46.4" width="299.2" height="299.2" rx="3" fill="#F6F4EC" stroke="#15170F" stroke-width="2.5"/><g clip-path="url(#rmst)"><circle cx="262.2" cy="258.2" r="138.7" fill="url(#pst)"/><circle cx="137.8" cy="258.2" r="138.7" fill="url(#pst)"/><circle cx="137.8" cy="133.8" r="138.7" fill="url(#pst)"/><circle cx="262.2" cy="133.8" r="138.7" fill="url(#pst)"/><path d="M200.0 196 L422.2 227.2 A 224.4 224.4 0 0 1 386.0 321.5 Z" fill="#15170F" fill-opacity="0.22"/><path d="M200.0 196 L284.1 404.1 A 224.4 224.4 0 0 1 184.3 419.9 Z" fill="#15170F" fill-opacity="0.22"/><path d="M200.0 196 L61.8 372.8 A 224.4 224.4 0 0 1 -1.7 294.4 Z" fill="#15170F" fill-opacity="0.22"/><path d="M200.0 196 L-22.2 164.8 A 224.4 224.4 0 0 1 14.0 70.5 Z" fill="#15170F" fill-opacity="0.22"/><path d="M200.0 196 L115.9 -12.1 A 224.4 224.4 0 0 1 215.7 -27.9 Z" fill="#15170F" fill-opacity="0.22"/><path d="M200.0 196 L338.2 19.2 A 224.4 224.4 0 0 1 401.7 97.6 Z" fill="#15170F" fill-opacity="0.22"/></g><path d="M200.0 196 L247.0 230.1" stroke="#15170F" stroke-width="9" stroke-linecap="round" opacity="0.18"/><path d="M200.0 196 L165.9 243.0" stroke="#15170F" stroke-width="9" stroke-linecap="round" opacity="0.18"/><path d="M200.0 196 L153.0 161.9" stroke="#15170F" stroke-width="9" stroke-linecap="round" opacity="0.18"/><path d="M200.0 196 L234.1 149.0" stroke="#15170F" stroke-width="9" stroke-linecap="round" opacity="0.18"/><path d="M200.0 196 L237.3 240.5" stroke="#15170F" stroke-width="9" stroke-linecap="round" opacity="0.1"/><path d="M200.0 196 L155.5 233.3" stroke="#15170F" stroke-width="9" stroke-linecap="round" opacity="0.1"/><path d="M200.0 196 L162.7 151.5" stroke="#15170F" stroke-width="9" stroke-linecap="round" opacity="0.1"/><path d="M200.0 196 L244.5 158.7" stroke="#15170F" stroke-width="9" stroke-linecap="round" opacity="0.1"/><path d="M200.0 196 L253.9 217.8" stroke="#15170F" stroke-width="9" stroke-linecap="round"/><path d="M200.0 196 L178.2 249.9" stroke="#15170F" stroke-width="9" stroke-linecap="round"/><path d="M200.0 196 L146.1 174.2" stroke="#15170F" stroke-width="9" stroke-linecap="round"/><path d="M200.0 196 L221.8 142.1" stroke="#15170F" stroke-width="9" stroke-linecap="round"/><circle cx="200.0" cy="196" r="58.1" fill="none" stroke="#8A8D7F" stroke-width="1.2" stroke-dasharray="5 5"/><circle cx="200.0" cy="196" r="11" fill="#15170F"/><circle cx="262.2" cy="258.2" r="9" fill="#fff" stroke="#15170F" stroke-width="2"/><circle cx="262.2" cy="258.2" r="3.4" fill="#15170F"/><circle cx="137.8" cy="258.2" r="9" fill="#fff" stroke="#15170F" stroke-width="2"/><circle cx="137.8" cy="258.2" r="3.4" fill="#15170F"/><circle cx="137.8" cy="133.8" r="9" fill="#fff" stroke="#15170F" stroke-width="2"/><circle cx="137.8" cy="133.8" r="3.4" fill="#15170F"/><circle cx="262.2" cy="133.8" r="9" fill="#fff" stroke="#15170F" stroke-width="2"/><circle cx="262.2" cy="133.8" r="3.4" fill="#15170F"/><rect x="84.0" y="16" width="232" height="42" rx="21" fill="#C0563E"/><path d="M104.0 30.0 l14 14 M118.0 30.0 l-14 14" stroke="#fff" stroke-width="3.4" stroke-linecap="round"/><text x="131.0" y="43.0" font-size="17" font-weight="700" fill="#fff" font-family="system-ui,-apple-system,sans-serif">Flicker</text><text x="200.0" y="80" font-size="12.5" font-weight="600" text-anchor="middle" fill="#15170F" font-family="system-ui,-apple-system,sans-serif">110° standard downlights + ceiling fan</text><text x="200.0" y="375.6" font-size="13" text-anchor="middle" fill="#C0563E" font-weight="600" font-family="system-ui,-apple-system,sans-serif">Blades cut the light</text><text x="200.0" y="395.6" font-size="11.5" text-anchor="middle" fill="#8A8D7F" font-family="system-ui,-apple-system,sans-serif">Wide beam spreads under the blades</text></svg>